<svg width="23" height="33" viewBox="0 0 23 33" fill="none" xmlns="http://www.w3.org/2000/svg">
<path d="M4.9719 14.0068L1.06836 11.0173V22.8398L4.9719 25.8292L8.86195 22.8398V11.0173L4.9719 14.0068Z" fill="#D9D9D9"/>
<path d="M4.86073 8.58714L8.86188 11.0187L4.9651 14.0331L1.06732 11.0187L4.86073 8.58714Z" fill="#D9D9D9"/>
<path d="M13.1504 17.1514V32.4036L18.169 28.5469V13.2947L13.1504 17.1514Z" fill="#4BB049"/>
<path d="M11.816 16.5552L16.8279 12.6912L18.1657 13.2939L13.161 17.1586V32.392L11.8076 31.7891L11.816 16.5552Z" fill="#4BB049"/>
<path d="M18.3723 20.912L14.4688 17.9225V29.7449L18.3723 32.7344L22.2623 29.7449V17.9225L18.3723 20.912Z" fill="#D9D9D9"/>
<path d="M18.2611 15.4923L22.2623 17.9238L18.3655 20.9382L14.4677 17.9238L18.2611 15.4923Z" fill="#D9D9D9"/>
<path d="M5.67969 13.0977V28.3499L10.6983 24.4931V9.24097L5.67969 13.0977Z" fill="#333333"/>
<path d="M4.34527 12.5015L9.35724 8.63745L10.695 9.24017L5.69032 13.1049V28.3383L4.33691 27.7354L4.34527 12.5015Z" fill="#4BB049"/>
<path d="M6.08675 1.37636L4.96526 0.74939L3.84375 1.37655L3.8461 1.37847V11.2863L4.96552 12.1901L6.08495 11.2863V1.37782L6.08675 1.37636Z" fill="#4BB049"/>
<path d="M19.5819 8.30653L18.4604 7.67957L17.3389 8.30673L17.3412 8.30865V18.2165L18.4606 19.1203L19.5801 18.2165V8.308L19.5819 8.30653Z" fill="#4BB049"/>
<path d="M18.4322 9.78432L4.95215 2.59496L4.96455 0.74939L19.5786 8.23763L19.5653 9.13962L18.4322 9.78432Z" fill="#4BB049"/>
</svg>
