<svg width="38" height="38" viewBox="0 0 38 38" fill="none" xmlns="http://www.w3.org/2000/svg">
<circle cx="19.4197" cy="19.3046" r="18.5047" fill="white"/>
<path d="M5.20637 19.3047V13.4865H6.43648V18.2905H8.9308V19.3047H5.20637ZM11.6943 19.3899C11.253 19.3899 10.8714 19.2962 10.5494 19.1087C10.2293 18.9193 9.98217 18.656 9.80793 18.3189C9.63369 17.9799 9.54656 17.5869 9.54656 17.1399C9.54656 16.6892 9.63369 16.2952 9.80793 15.9581C9.98217 15.6191 10.2293 15.3558 10.5494 15.1683C10.8714 14.9789 11.253 14.8842 11.6943 14.8842C12.1356 14.8842 12.5163 14.9789 12.8363 15.1683C13.1583 15.3558 13.4064 15.6191 13.5807 15.9581C13.7549 16.2952 13.842 16.6892 13.842 17.1399C13.842 17.5869 13.7549 17.9799 13.5807 18.3189C13.4064 18.656 13.1583 18.9193 12.8363 19.1087C12.5163 19.2962 12.1356 19.3899 11.6943 19.3899ZM11.7 18.4524C11.9007 18.4524 12.0683 18.3956 12.2028 18.282C12.3373 18.1664 12.4386 18.0092 12.5068 17.8104C12.5769 17.6115 12.6119 17.3852 12.6119 17.1314C12.6119 16.8776 12.5769 16.6513 12.5068 16.4524C12.4386 16.2536 12.3373 16.0964 12.2028 15.9808C12.0683 15.8653 11.9007 15.8075 11.7 15.8075C11.4973 15.8075 11.3269 15.8653 11.1886 15.9808C11.0522 16.0964 10.949 16.2536 10.879 16.4524C10.8108 16.6513 10.7767 16.8776 10.7767 17.1314C10.7767 17.3852 10.8108 17.6115 10.879 17.8104C10.949 18.0092 11.0522 18.1664 11.1886 18.282C11.3269 18.3956 11.4973 18.4524 11.7 18.4524ZM16.5949 21.032C16.2028 21.032 15.8666 20.978 15.5863 20.87C15.3079 20.764 15.0863 20.6191 14.9216 20.4354C14.7568 20.2517 14.6498 20.0452 14.6005 19.8161L15.7199 19.6655C15.754 19.7526 15.8079 19.834 15.8818 19.9098C15.9557 19.9856 16.0532 20.0462 16.1744 20.0916C16.2975 20.139 16.4471 20.1626 16.6233 20.1626C16.8865 20.1626 17.1034 20.0982 17.2738 19.9695C17.4462 19.8426 17.5324 19.6295 17.5324 19.3303V18.532H17.4812C17.4282 18.6532 17.3486 18.7678 17.2426 18.8757C17.1365 18.9837 17.0002 19.0717 16.8335 19.1399C16.6668 19.2081 16.468 19.2422 16.2369 19.2422C15.9093 19.2422 15.611 19.1664 15.342 19.0149C15.075 18.8615 14.8619 18.6276 14.7028 18.3132C14.5456 17.9969 14.467 17.5973 14.467 17.1143C14.467 16.62 14.5475 16.2071 14.7085 15.8757C14.8695 15.5443 15.0835 15.2962 15.3505 15.1314C15.6195 14.9666 15.914 14.8842 16.2341 14.8842C16.4784 14.8842 16.6829 14.9259 16.8477 15.0092C17.0125 15.0907 17.145 15.1929 17.2454 15.3161C17.3477 15.4373 17.4263 15.5566 17.4812 15.674H17.5267V14.9411H18.7284V19.3473C18.7284 19.7185 18.6375 20.0291 18.4557 20.2791C18.2738 20.5291 18.0219 20.7166 17.7 20.8416C17.3799 20.9685 17.0115 21.032 16.5949 21.032ZM16.6204 18.3331C16.8155 18.3331 16.9803 18.2848 17.1147 18.1882C17.2511 18.0897 17.3553 17.9496 17.4272 17.7678C17.5011 17.584 17.538 17.3643 17.538 17.1087C17.538 16.853 17.5021 16.6314 17.4301 16.4439C17.3581 16.2545 17.254 16.1077 17.1176 16.0036C16.9812 15.8994 16.8155 15.8473 16.6204 15.8473C16.4216 15.8473 16.254 15.9013 16.1176 16.0092C15.9812 16.1153 15.878 16.263 15.8079 16.4524C15.7379 16.6418 15.7028 16.8606 15.7028 17.1087C15.7028 17.3606 15.7379 17.5784 15.8079 17.7621C15.8799 17.9439 15.9831 18.085 16.1176 18.1854C16.254 18.2839 16.4216 18.3331 16.6204 18.3331ZM21.6574 21.032C21.2653 21.032 20.9291 20.978 20.6488 20.87C20.3704 20.764 20.1488 20.6191 19.9841 20.4354C19.8193 20.2517 19.7123 20.0452 19.663 19.8161L20.7824 19.6655C20.8165 19.7526 20.8704 19.834 20.9443 19.9098C21.0182 19.9856 21.1157 20.0462 21.2369 20.0916C21.36 20.139 21.5096 20.1626 21.6858 20.1626C21.949 20.1626 22.1659 20.0982 22.3363 19.9695C22.5087 19.8426 22.5949 19.6295 22.5949 19.3303V18.532H22.5437C22.4907 18.6532 22.4111 18.7678 22.3051 18.8757C22.199 18.9837 22.0627 19.0717 21.896 19.1399C21.7293 19.2081 21.5305 19.2422 21.2994 19.2422C20.9718 19.2422 20.6735 19.1664 20.4045 19.0149C20.1375 18.8615 19.9244 18.6276 19.7653 18.3132C19.6081 17.9969 19.5295 17.5973 19.5295 17.1143C19.5295 16.62 19.61 16.2071 19.771 15.8757C19.932 15.5443 20.146 15.2962 20.413 15.1314C20.682 14.9666 20.9765 14.8842 21.2966 14.8842C21.5409 14.8842 21.7454 14.9259 21.9102 15.0092C22.075 15.0907 22.2075 15.1929 22.3079 15.3161C22.4102 15.4373 22.4888 15.5566 22.5437 15.674H22.5892V14.9411H23.7909V19.3473C23.7909 19.7185 23.7 20.0291 23.5182 20.2791C23.3363 20.5291 23.0844 20.7166 22.7625 20.8416C22.4424 20.9685 22.074 21.032 21.6574 21.032ZM21.6829 18.3331C21.878 18.3331 22.0428 18.2848 22.1772 18.1882C22.3136 18.0897 22.4178 17.9496 22.4897 17.7678C22.5636 17.584 22.6005 17.3643 22.6005 17.1087C22.6005 16.853 22.5646 16.6314 22.4926 16.4439C22.4206 16.2545 22.3165 16.1077 22.1801 16.0036C22.0437 15.8994 21.878 15.8473 21.6829 15.8473C21.4841 15.8473 21.3165 15.9013 21.1801 16.0092C21.0437 16.1153 20.9405 16.263 20.8704 16.4524C20.8004 16.6418 20.7653 16.8606 20.7653 17.1087C20.7653 17.3606 20.8004 17.5784 20.8704 17.7621C20.9424 17.9439 21.0456 18.085 21.1801 18.1854C21.3165 18.2839 21.4841 18.3331 21.6829 18.3331ZM26.7426 19.3899C26.2937 19.3899 25.9074 19.299 25.5835 19.1172C25.2615 18.9335 25.0134 18.674 24.8392 18.3388C24.6649 18.0017 24.5778 17.603 24.5778 17.1428C24.5778 16.6939 24.6649 16.3 24.8392 15.9609C25.0134 15.6219 25.2587 15.3577 25.575 15.1683C25.8932 14.9789 26.2663 14.8842 26.6943 14.8842C26.9822 14.8842 27.2502 14.9306 27.4983 15.0234C27.7483 15.1143 27.9661 15.2517 28.1517 15.4354C28.3392 15.6191 28.485 15.8501 28.5892 16.1286C28.6933 16.4051 28.7454 16.7289 28.7454 17.1001V17.4325H25.0608V16.6825H27.6062C27.6062 16.5083 27.5683 16.3539 27.4926 16.2195C27.4168 16.085 27.3117 15.9799 27.1772 15.9041C27.0447 15.8265 26.8903 15.7876 26.7142 15.7876C26.5305 15.7876 26.3676 15.8303 26.2255 15.9155C26.0854 15.9988 25.9755 16.1115 25.896 16.2536C25.8165 16.3937 25.7757 16.55 25.7738 16.7223V17.4354C25.7738 17.6513 25.8136 17.8378 25.8932 17.995C25.9746 18.1522 26.0892 18.2734 26.2369 18.3587C26.3846 18.4439 26.5598 18.4865 26.7625 18.4865C26.8969 18.4865 27.02 18.4676 27.1318 18.4297C27.2435 18.3918 27.3392 18.335 27.4187 18.2592C27.4983 18.1835 27.5589 18.0907 27.6005 17.9808L28.7199 18.0547C28.663 18.3236 28.5466 18.5585 28.3704 18.7592C28.1962 18.9581 27.9708 19.1134 27.6943 19.2251C27.4197 19.335 27.1024 19.3899 26.7426 19.3899ZM31.1432 19.3757C30.8117 19.3757 30.5115 19.2905 30.2426 19.12C29.9755 18.9477 29.7634 18.6948 29.6062 18.3615C29.4509 18.0263 29.3733 17.6153 29.3733 17.1286C29.3733 16.6286 29.4538 16.2128 29.6147 15.8814C29.7757 15.5481 29.9897 15.299 30.2568 15.1342C30.5257 14.9676 30.8202 14.8842 31.1403 14.8842C31.3846 14.8842 31.5882 14.9259 31.7511 15.0092C31.9159 15.0907 32.0485 15.1929 32.1488 15.3161C32.2511 15.4373 32.3288 15.5566 32.3818 15.674H32.4187V13.4865H33.6261V19.3047H32.4329V18.6058H32.3818C32.325 18.727 32.2445 18.8473 32.1403 18.9666C32.038 19.084 31.9045 19.1816 31.7397 19.2592C31.5769 19.3369 31.378 19.3757 31.1432 19.3757ZM31.5267 18.4126C31.7218 18.4126 31.8865 18.3596 32.021 18.2536C32.1574 18.1456 32.2615 17.995 32.3335 17.8018C32.4074 17.6087 32.4443 17.3823 32.4443 17.1229C32.4443 16.8634 32.4083 16.638 32.3363 16.4467C32.2644 16.2554 32.1602 16.1077 32.0238 16.0036C31.8875 15.8994 31.7218 15.8473 31.5267 15.8473C31.3278 15.8473 31.1602 15.9013 31.0238 16.0092C30.8875 16.1172 30.7843 16.2668 30.7142 16.4581C30.6441 16.6494 30.6091 16.871 30.6091 17.1229C30.6091 17.3767 30.6441 17.6011 30.7142 17.7962C30.7861 17.9893 30.8894 18.1409 31.0238 18.2507C31.1602 18.3587 31.3278 18.4126 31.5267 18.4126ZM16.3243 29.3047V24.9411H17.5345V29.3047H16.3243ZM16.9322 24.3786C16.7523 24.3786 16.5979 24.3189 16.4691 24.1996C16.3423 24.0784 16.2788 23.9335 16.2788 23.7649C16.2788 23.5982 16.3423 23.4553 16.4691 23.3359C16.5979 23.2147 16.7523 23.1541 16.9322 23.1541C17.1121 23.1541 17.2656 23.2147 17.3924 23.3359C17.5212 23.4553 17.5856 23.5982 17.5856 23.7649C17.5856 23.9335 17.5212 24.0784 17.3924 24.1996C17.2656 24.3189 17.1121 24.3786 16.9322 24.3786ZM19.7142 26.782V29.3047H18.504V24.9411H19.6574V25.7109H19.7085C19.8051 25.4571 19.967 25.2564 20.1943 25.1087C20.4216 24.959 20.6971 24.8842 21.021 24.8842C21.324 24.8842 21.5882 24.9505 21.8136 25.0831C22.039 25.2157 22.2142 25.4051 22.3392 25.6513C22.4642 25.8956 22.5267 26.1873 22.5267 26.5263V29.3047H21.3165V26.7422C21.3183 26.4751 21.2502 26.2668 21.1119 26.1172C20.9736 25.9657 20.7833 25.8899 20.5409 25.8899C20.378 25.8899 20.2341 25.925 20.1091 25.995C19.986 26.0651 19.8894 26.1674 19.8193 26.3018C19.7511 26.4344 19.7161 26.5945 19.7142 26.782Z" fill="#4BB049"/>
</svg>
