<svg width="58" height="84" viewBox="0 0 58 84" fill="none" xmlns="http://www.w3.org/2000/svg">
<path d="M11.5808 34.721L1.46582 26.9745V57.6093L11.5808 65.3557L21.6609 57.6093V26.9745L11.5808 34.721Z" fill="#D9D9D9"/>
<ellipse cx="6.30042" cy="37.2054" rx="1.95508" ry="2.97177" fill="#4BB049"/>
<ellipse cx="3.75559" cy="50.2392" rx="0.838819" ry="1.27502" transform="rotate(-4.83672 3.75559 50.2392)" fill="#4BB049"/>
<ellipse cx="5.65867" cy="48.5011" rx="0.838819" ry="1.27502" transform="rotate(-4.83672 5.65867 48.5011)" fill="#4BB049"/>
<ellipse cx="7.31211" cy="51.2178" rx="0.838819" ry="1.27502" transform="rotate(-4.83672 7.31211 51.2178)" fill="#4BB049"/>
<ellipse cx="5.47154" cy="52.6531" rx="0.838819" ry="1.27502" transform="rotate(-4.83672 5.47154 52.6531)" fill="#4BB049"/>
<path d="M11.2928 20.6774L21.6607 26.9781L11.5632 34.7891L1.46312 26.9781L11.2928 20.6774Z" fill="#D9D9D9"/>
<path d="M32.7708 42.8694V82.3914L45.7751 72.3977V32.8756L32.7708 42.8694Z" fill="#655F5F"/>
<path d="M29.3125 41.3245L42.2998 31.3118L45.7662 32.8736L32.7979 42.888V82.3615L29.2909 80.7991L29.3125 41.3245Z" fill="#4BB049"/>
<path d="M46.3015 52.614L36.1865 44.8675V75.5023L46.3015 83.2487L56.3816 75.5023V44.8675L46.3015 52.614Z" fill="#D9D9D9"/>
<ellipse cx="41.0211" cy="55.0984" rx="1.95508" ry="2.97177" fill="#4BB049"/>
<ellipse cx="38.4763" cy="68.1322" rx="0.838819" ry="1.27502" transform="rotate(-4.83672 38.4763 68.1322)" fill="#4BB049"/>
<ellipse cx="40.3794" cy="66.3942" rx="0.838819" ry="1.27502" transform="rotate(-4.83672 40.3794 66.3942)" fill="#4BB049"/>
<ellipse cx="42.0328" cy="69.1108" rx="0.838819" ry="1.27502" transform="rotate(-4.83672 42.0328 69.1108)" fill="#4BB049"/>
<ellipse cx="40.1922" cy="70.5461" rx="0.838819" ry="1.27502" transform="rotate(-4.83672 40.1922 70.5461)" fill="#4BB049"/>
<path d="M46.0135 38.5704L56.3814 44.8711L46.2839 52.6821L36.1838 44.8711L46.0135 38.5704Z" fill="#D9D9D9"/>
<path d="M13.4183 32.3654V71.8874L26.4227 61.8937V22.3716L13.4183 32.3654Z" fill="#655F5F"/>
<path d="M15.5891 37.2945V63.6218L24.2519 56.9645V30.6372L15.5891 37.2945Z" fill="#333333"/>
<path d="M9.96012 30.8205L22.9473 20.8077L26.4137 22.3695L13.4455 32.384V71.8575L9.93848 70.2951L9.96012 30.8205Z" fill="#4BB049"/>
<path d="M14.4688 1.99297L11.5627 0.368347L8.65662 1.99348L8.6627 1.99845V27.6721L11.5634 30.014L14.4641 27.6721V1.99676L14.4688 1.99297Z" fill="#284E27"/>
<path d="M49.4329 19.9495L46.5268 18.3248L43.6207 19.95L43.6268 19.9549V45.6285L46.5275 47.9705L49.4282 45.6285V19.9532L49.4329 19.9495Z" fill="#284E27"/>
<path d="M46.4577 23.7793L11.5276 5.14994L11.5597 0.367615L49.4284 19.7715L49.3938 22.1087L46.4577 23.7793Z" fill="#284E27"/>
</svg>
