<svg width="36" height="35" viewBox="0 0 36 35" fill="none" xmlns="http://www.w3.org/2000/svg">
<rect x="0.691406" y="0.426758" width="34.4614" height="34.4614" fill="white"/>
<path d="M25.5301 10.8982C25.6033 10.8676 25.6812 10.9304 25.667 11.0084L22.9569 25.8408C22.9437 25.9131 22.8597 25.9469 22.8001 25.904L16.1282 21.0959C16.0806 21.0616 16.0726 20.9938 16.111 20.9494L21.202 15.0491C21.2763 14.9631 21.1723 14.8396 21.0748 14.8981L12.8993 19.8093C12.8745 19.8242 12.8444 19.8277 12.8169 19.8187L8.20011 18.3171C8.11187 18.2884 8.1069 18.1654 8.19254 18.1297L25.5301 10.8982Z" fill="#4BB049"/>
<path d="M12.8618 19.8305L11.936 19.5298L20.859 14.7061L21.1236 14.8813L12.8618 19.8305Z" fill="#797979"/>
</svg>
