<svg width="36" height="35" viewBox="0 0 36 35" fill="none" xmlns="http://www.w3.org/2000/svg">
<rect x="0.635742" y="0.426758" width="34.4614" height="34.4614" fill="white"/>
<path d="M9.3108 11.7944C9.57616 11.5332 10.3625 10.7612 17.6201 10.7612C24.8776 10.7612 25.6812 11.469 25.9337 11.7944C26.1861 12.1198 26.4755 12.449 26.4755 17.1213C26.4755 21.7937 26.3523 22.1713 25.9337 22.5516C25.515 22.9319 24.8171 23.4814 17.6201 23.4814C10.4231 23.4814 9.58268 22.8822 9.3108 22.5516C9.03891 22.2211 8.76465 21.7772 8.76465 17.1213C8.76465 12.4654 9.04543 12.0556 9.3108 11.7944Z" fill="#4BB049"/>
<path d="M20.1128 16.6884C20.4461 16.8808 20.4461 17.362 20.1128 17.5544L16.7487 19.4967C16.4154 19.6891 15.9987 19.4486 15.9987 19.0637V15.1791C15.9987 14.7942 16.4154 14.5537 16.7487 14.7461L20.1128 16.6884Z" fill="white"/>
</svg>
